<?xml version="1.0" encoding="UTF-8"?>
<svg xmlns="http://www.w3.org/2000/svg" xmlns:xlink="http://www.w3.org/1999/xlink" width="16px" height="16px" viewBox="0 0 16 16" version="1.1">
<g id="surface1">
<path style=" stroke:none;fill-rule:nonzero;fill:rgb(0%,0%,0%);fill-opacity:1;" d="M 8 0.332031 C 3.589844 0.332031 0 3.773438 0 8 C 0 12.226562 3.589844 15.667969 8 15.667969 C 12.410156 15.667969 16 12.226562 16 8 C 16 3.773438 12.410156 0.332031 8 0.332031 Z M 8 14.675781 C 4.160156 14.675781 1.035156 11.679688 1.035156 8 C 1.035156 4.320312 4.160156 1.324219 8 1.324219 C 11.839844 1.324219 14.964844 4.320312 14.964844 8 C 14.964844 11.679688 11.839844 14.675781 8 14.675781 Z M 10.71875 5.761719 L 10.78125 5.761719 L 10.78125 5.472656 L 10.894531 5.472656 L 10.894531 5.417969 L 10.605469 5.417969 L 10.605469 5.472656 L 10.71875 5.472656 Z M 10.996094 5.496094 L 11.097656 5.761719 L 11.148438 5.761719 L 11.246094 5.496094 L 11.25 5.496094 L 11.25 5.761719 L 11.308594 5.761719 L 11.308594 5.417969 L 11.222656 5.417969 L 11.125 5.6875 L 11.121094 5.6875 L 11.023438 5.417969 L 10.933594 5.417969 L 10.933594 5.761719 L 10.996094 5.761719 Z M 9.179688 5.417969 L 5.242188 5.417969 L 4.644531 6.339844 L 8.578125 6.339844 Z M 9.980469 5.425781 L 7.578125 9.097656 L 4.910156 9.097656 L 5.523438 8.179688 L 7.121094 8.179688 L 7.734375 7.257812 L 4.035156 7.257812 L 3.425781 8.179688 L 4.300781 8.179688 L 3.085938 10.015625 L 8.160156 10.015625 L 10.03125 7.183594 L 10.714844 8.179688 L 10.097656 8.179688 L 9.515625 9.097656 L 11.339844 9.097656 L 11.972656 10.015625 L 13.136719 10.015625 Z M 9.980469 5.425781 "/>
</g>
</svg>
