<?xml version="1.0" encoding="UTF-8"?>
<svg xmlns="http://www.w3.org/2000/svg" xmlns:xlink="http://www.w3.org/1999/xlink" width="16px" height="16px" viewBox="0 0 16 16" version="1.1">
<g id="surface1">
<path style=" stroke:none;fill-rule:nonzero;fill:rgb(37.254902%,37.254902%,37.254902%);fill-opacity:1;" d="M 13.8125 0.0429688 L 2.179688 0.0429688 C 1.242188 0.0429688 0.890625 0.382812 0.890625 1.292969 L 0.890625 12.269531 C 0.890625 12.371094 0.894531 12.46875 0.90625 12.554688 C 0.925781 12.753906 0.929688 12.949219 1.121094 13.167969 C 1.140625 13.1875 1.339844 13.332031 1.339844 13.332031 C 1.441406 13.382812 1.515625 13.417969 1.632812 13.464844 L 7.355469 15.78125 C 7.65625 15.910156 7.777344 15.964844 7.996094 15.960938 C 8.210938 15.964844 8.335938 15.917969 8.632812 15.78125 L 14.359375 13.464844 C 14.476562 13.421875 14.546875 13.382812 14.652344 13.332031 C 14.652344 13.332031 14.847656 13.191406 14.867188 13.167969 C 15.058594 12.949219 15.066406 12.753906 15.085938 12.554688 C 15.09375 12.46875 15.097656 12.371094 15.097656 12.269531 L 15.097656 1.292969 C 15.097656 0.382812 14.753906 0.0429688 13.8125 0.0429688 "/>
<path style=" stroke:none;fill-rule:nonzero;fill:rgb(100%,100%,100%);fill-opacity:1;" d="M 13.03125 11.082031 L 13.023438 11.105469 L 13.015625 11.160156 L 13.003906 11.183594 L 12.996094 11.210938 L 12.988281 11.234375 L 12.976562 11.257812 L 12.96875 11.28125 L 12.957031 11.304688 L 12.878906 11.402344 L 12.84375 11.4375 L 12.820312 11.457031 L 12.804688 11.472656 L 12.78125 11.488281 L 12.761719 11.496094 L 12.742188 11.515625 L 12.714844 11.527344 L 12.691406 11.535156 L 12.660156 11.554688 L 12.609375 11.570312 L 12.585938 11.582031 L 12.585938 11.578125 L 12.558594 11.589844 L 12.464844 11.605469 L 12.4375 11.613281 L 12.382812 11.621094 L 12.355469 11.628906 L 12.328125 11.632812 L 12.222656 11.632812 L 12.199219 11.628906 L 12.167969 11.628906 L 12.117188 11.617188 L 12.085938 11.613281 L 12.058594 11.605469 L 11.957031 11.589844 L 11.929688 11.582031 L 11.90625 11.570312 L 11.878906 11.566406 L 11.828125 11.546875 L 11.804688 11.535156 L 11.75 11.519531 L 11.722656 11.507812 L 11.648438 11.480469 L 11.621094 11.46875 L 11.597656 11.453125 L 11.578125 11.4375 L 11.550781 11.421875 L 11.53125 11.410156 L 11.507812 11.394531 L 11.46875 11.363281 L 11.445312 11.347656 L 11.425781 11.332031 L 11.40625 11.320312 L 11.382812 11.296875 L 11.402344 11.28125 L 11.421875 11.257812 L 11.4375 11.242188 L 11.457031 11.21875 L 11.488281 11.179688 L 11.527344 11.140625 L 11.542969 11.121094 L 11.558594 11.097656 L 11.582031 11.082031 L 11.597656 11.058594 L 11.609375 11.042969 L 11.648438 11.003906 L 11.667969 10.980469 L 11.683594 10.960938 L 11.703125 10.976562 L 11.730469 10.992188 L 11.75 11.007812 L 11.777344 11.019531 L 11.796875 11.035156 L 11.824219 11.050781 L 11.84375 11.066406 L 11.871094 11.078125 L 11.890625 11.089844 L 11.917969 11.097656 L 11.941406 11.109375 L 11.992188 11.128906 L 12.019531 11.140625 L 12.070312 11.160156 L 12.097656 11.171875 L 12.171875 11.183594 L 12.203125 11.191406 L 12.230469 11.195312 L 12.257812 11.195312 L 12.285156 11.199219 L 12.34375 11.199219 L 12.375 11.195312 L 12.453125 11.179688 L 12.472656 11.171875 L 12.492188 11.160156 L 12.515625 11.144531 L 12.53125 11.125 L 12.539062 11.105469 L 12.550781 11.082031 L 12.554688 11.054688 L 12.554688 11.050781 L 12.550781 11.019531 L 12.539062 10.996094 L 12.523438 10.976562 L 12.484375 10.945312 L 12.464844 10.9375 L 12.4375 10.925781 L 12.410156 10.917969 L 12.378906 10.902344 L 12.359375 10.894531 L 12.339844 10.890625 L 12.3125 10.882812 L 12.285156 10.878906 L 12.261719 10.867188 L 12.234375 10.859375 L 12.203125 10.851562 L 12.179688 10.847656 L 12.148438 10.839844 L 12.121094 10.832031 L 12.097656 10.820312 L 12.070312 10.816406 L 12.019531 10.796875 L 11.992188 10.792969 L 11.917969 10.765625 L 11.882812 10.753906 L 11.832031 10.734375 L 11.808594 10.722656 L 11.78125 10.707031 L 11.757812 10.691406 L 11.734375 10.679688 L 11.710938 10.664062 L 11.691406 10.648438 L 11.667969 10.632812 L 11.648438 10.617188 L 11.628906 10.597656 L 11.605469 10.578125 L 11.589844 10.558594 L 11.578125 10.539062 L 11.558594 10.519531 L 11.542969 10.5 L 11.53125 10.472656 L 11.507812 10.433594 L 11.503906 10.410156 L 11.492188 10.390625 L 11.480469 10.316406 L 11.472656 10.292969 L 11.46875 10.261719 L 11.46875 10.203125 L 11.472656 10.175781 L 11.480469 10.152344 L 11.484375 10.128906 L 11.492188 10.078125 L 11.503906 10.054688 L 11.507812 10.027344 L 11.519531 10.003906 L 11.53125 9.976562 L 11.539062 9.953125 L 11.570312 9.902344 L 11.601562 9.863281 L 11.621094 9.84375 L 11.644531 9.824219 L 11.683594 9.785156 L 11.722656 9.753906 L 11.746094 9.738281 L 11.765625 9.722656 L 11.792969 9.707031 L 11.816406 9.699219 L 11.84375 9.683594 L 11.871094 9.671875 L 11.945312 9.644531 L 11.96875 9.640625 L 12.070312 9.621094 L 12.097656 9.617188 L 12.121094 9.609375 L 12.171875 9.597656 L 12.285156 9.597656 L 12.316406 9.605469 L 12.347656 9.609375 L 12.375 9.609375 L 12.40625 9.617188 L 12.429688 9.621094 L 12.464844 9.625 L 12.539062 9.640625 L 12.566406 9.644531 L 12.589844 9.652344 L 12.644531 9.667969 L 12.667969 9.671875 L 12.695312 9.683594 L 12.746094 9.703125 L 12.769531 9.714844 L 12.796875 9.722656 L 12.820312 9.738281 L 12.84375 9.75 L 12.871094 9.765625 L 12.894531 9.777344 L 12.964844 9.824219 L 12.980469 9.839844 L 13.003906 9.855469 L 13.023438 9.867188 L 13.007812 9.890625 L 12.992188 9.90625 L 12.976562 9.929688 L 12.964844 9.945312 L 12.945312 9.972656 L 12.929688 9.992188 L 12.917969 10.011719 L 12.882812 10.054688 L 12.871094 10.070312 L 12.855469 10.09375 L 12.839844 10.109375 L 12.820312 10.136719 L 12.808594 10.15625 L 12.792969 10.175781 L 12.742188 10.285156 L 12.722656 10.304688 L 12.703125 10.292969 L 12.65625 10.261719 L 12.636719 10.246094 L 12.609375 10.234375 L 12.589844 10.222656 L 12.566406 10.210938 L 12.542969 10.203125 L 12.496094 10.179688 L 12.472656 10.171875 L 12.453125 10.160156 L 12.421875 10.152344 L 12.371094 10.132812 L 12.34375 10.128906 L 12.328125 10.136719 L 12.277344 10.128906 L 12.25 10.121094 L 12.222656 10.117188 L 12.167969 10.117188 L 12.136719 10.121094 L 12.085938 10.132812 L 12.042969 10.152344 L 12.019531 10.171875 L 12.003906 10.195312 L 11.992188 10.222656 L 11.988281 10.246094 L 11.988281 10.25 L 11.992188 10.285156 L 12.003906 10.316406 L 12.015625 10.332031 L 12.035156 10.347656 L 12.058594 10.367188 L 12.105469 10.390625 L 12.136719 10.402344 L 12.167969 10.410156 L 12.191406 10.414062 L 12.210938 10.425781 L 12.234375 10.429688 L 12.261719 10.441406 L 12.285156 10.445312 L 12.316406 10.453125 L 12.347656 10.464844 L 12.410156 10.480469 L 12.4375 10.488281 L 12.46875 10.5 L 12.492188 10.503906 L 12.542969 10.523438 L 12.570312 10.535156 L 12.597656 10.542969 L 12.621094 10.554688 L 12.648438 10.558594 L 12.679688 10.570312 L 12.703125 10.582031 L 12.730469 10.59375 L 12.757812 10.609375 L 12.78125 10.621094 L 12.808594 10.640625 L 12.828125 10.652344 L 12.847656 10.667969 L 12.871094 10.683594 L 12.96875 10.78125 L 12.980469 10.808594 L 12.996094 10.828125 L 13.015625 10.851562 L 13.023438 10.871094 L 13.035156 10.894531 L 13.042969 10.945312 L 13.054688 10.996094 L 13.058594 11.019531 L 13.066406 11.050781 L 13.066406 11.109375 Z M 11.199219 11.589844 L 9.703125 11.589844 L 9.703125 9.742188 L 11.210938 9.742188 L 11.210938 10.160156 L 10.199219 10.160156 L 10.199219 10.464844 L 11.105469 10.464844 L 11.105469 10.855469 L 10.199219 10.855469 L 10.199219 11.171875 L 11.222656 11.171875 L 11.222656 11.589844 Z M 9.285156 11.589844 L 8.808594 11.589844 L 8.808594 10.5 L 8.792969 10.519531 L 8.761719 10.566406 L 8.746094 10.582031 L 8.730469 10.609375 L 8.714844 10.628906 L 8.703125 10.648438 L 8.683594 10.671875 L 8.667969 10.691406 L 8.65625 10.714844 L 8.640625 10.734375 L 8.621094 10.757812 L 8.609375 10.777344 L 8.59375 10.796875 L 8.5625 10.84375 L 8.546875 10.859375 L 8.53125 10.886719 L 8.519531 10.90625 L 8.503906 10.925781 L 8.488281 10.953125 L 8.457031 10.992188 L 8.441406 11.015625 L 8.417969 11.054688 L 8.402344 11.078125 L 8.386719 11.097656 L 8.371094 11.121094 L 8.355469 11.140625 L 8.34375 11.164062 L 8.328125 11.183594 L 8.316406 11.207031 L 8.296875 11.230469 L 8.28125 11.25 L 8.273438 11.25 L 8.257812 11.222656 L 8.242188 11.207031 L 8.226562 11.179688 L 8.210938 11.160156 L 8.195312 11.132812 L 8.179688 11.117188 L 8.164062 11.089844 L 8.152344 11.070312 L 8.132812 11.046875 L 8.121094 11.027344 L 8.109375 11.003906 L 8.078125 10.957031 L 8.105469 10.929688 L 8.089844 10.90625 L 8.070312 10.886719 L 8.054688 10.859375 L 8.042969 10.84375 L 8.027344 10.816406 L 8.007812 10.796875 L 8 10.78125 L 7.984375 10.765625 L 7.96875 10.738281 L 7.953125 10.71875 L 7.9375 10.691406 L 7.921875 10.671875 L 7.90625 10.648438 L 7.894531 10.632812 L 7.882812 10.609375 L 7.867188 10.589844 L 7.847656 10.566406 L 7.835938 10.542969 L 7.820312 10.519531 L 7.804688 10.5 L 7.804688 11.582031 L 7.308594 11.582031 L 7.308594 9.738281 L 7.84375 9.738281 L 7.859375 9.757812 L 7.878906 9.785156 L 7.890625 9.804688 L 7.90625 9.828125 L 7.921875 9.847656 L 7.96875 9.917969 L 8 9.957031 L 8.046875 10.027344 L 8.0625 10.046875 L 8.09375 10.09375 L 8.109375 10.109375 L 8.121094 10.136719 L 8.140625 10.15625 L 8.15625 10.179688 L 8.167969 10.203125 L 8.183594 10.226562 L 8.203125 10.246094 L 8.210938 10.269531 L 8.226562 10.292969 L 8.234375 10.308594 L 8.253906 10.335938 L 8.269531 10.355469 L 8.28125 10.378906 L 8.296875 10.402344 L 8.308594 10.425781 L 8.324219 10.445312 L 8.339844 10.46875 L 8.355469 10.488281 L 8.371094 10.46875 L 8.386719 10.445312 L 8.402344 10.425781 L 8.449219 10.355469 L 8.464844 10.335938 L 8.480469 10.308594 L 8.496094 10.292969 L 8.503906 10.269531 L 8.519531 10.246094 L 8.535156 10.226562 L 8.582031 10.15625 L 8.597656 10.136719 L 8.613281 10.109375 L 8.628906 10.09375 L 8.660156 10.046875 L 8.675781 10.027344 L 8.722656 9.957031 L 8.730469 9.9375 L 8.746094 9.917969 L 8.792969 9.847656 L 8.808594 9.828125 L 8.824219 9.804688 L 8.839844 9.785156 L 8.855469 9.757812 L 8.871094 9.738281 L 9.40625 9.738281 L 9.40625 11.582031 Z M 6.257812 10.828125 L 6.246094 10.804688 L 6.238281 10.777344 L 6.226562 10.753906 L 6.21875 10.726562 L 6.195312 10.679688 L 6.183594 10.652344 L 6.167969 10.605469 L 6.15625 10.578125 L 6.132812 10.53125 L 6.125 10.503906 L 6.113281 10.480469 L 6.105469 10.453125 L 6.082031 10.40625 L 6.070312 10.378906 L 6.054688 10.332031 L 6.042969 10.304688 L 6.03125 10.28125 L 6.019531 10.304688 L 6.011719 10.332031 L 6 10.355469 L 5.992188 10.378906 L 5.980469 10.40625 L 5.96875 10.429688 L 5.960938 10.453125 L 5.949219 10.480469 L 5.941406 10.503906 L 5.929688 10.53125 L 5.90625 10.578125 L 5.898438 10.605469 L 5.886719 10.628906 L 5.878906 10.652344 L 5.867188 10.679688 L 5.855469 10.703125 L 5.847656 10.726562 L 5.835938 10.753906 L 5.828125 10.777344 L 5.816406 10.804688 L 5.792969 10.851562 L 6.238281 10.851562 Z M 7.078125 11.589844 L 6.566406 11.589844 L 6.558594 11.5625 L 6.546875 11.535156 L 6.535156 11.515625 L 6.527344 11.488281 L 6.515625 11.464844 L 6.503906 11.4375 L 6.496094 11.414062 L 6.484375 11.390625 L 6.472656 11.363281 L 6.464844 11.339844 L 6.453125 11.316406 L 6.445312 11.289062 L 6.421875 11.242188 L 6.410156 11.214844 L 5.671875 11.214844 L 5.660156 11.242188 L 5.652344 11.265625 L 5.640625 11.289062 L 5.628906 11.316406 L 5.621094 11.339844 L 5.597656 11.382812 L 5.589844 11.410156 L 5.566406 11.457031 L 5.558594 11.484375 L 5.546875 11.507812 L 5.527344 11.558594 L 5.515625 11.582031 L 5.003906 11.582031 L 5.011719 11.558594 L 5.03125 11.515625 L 5.042969 11.488281 L 5.054688 11.464844 L 5.074219 11.417969 L 5.082031 11.394531 L 5.09375 11.367188 L 5.125 11.304688 L 5.132812 11.28125 L 5.144531 11.253906 L 5.167969 11.207031 L 5.175781 11.179688 L 5.1875 11.15625 L 5.195312 11.128906 L 5.207031 11.105469 L 5.226562 11.054688 L 5.246094 11.011719 L 5.257812 10.984375 L 5.28125 10.9375 L 5.289062 10.910156 L 5.300781 10.886719 L 5.308594 10.859375 L 5.320312 10.839844 L 5.339844 10.785156 L 5.351562 10.765625 L 5.359375 10.738281 L 5.371094 10.714844 L 5.382812 10.6875 L 5.394531 10.664062 L 5.402344 10.640625 L 5.414062 10.613281 L 5.421875 10.589844 L 5.433594 10.566406 L 5.445312 10.539062 L 5.453125 10.515625 L 5.464844 10.488281 L 5.472656 10.464844 L 5.484375 10.441406 L 5.496094 10.414062 L 5.507812 10.390625 L 5.515625 10.367188 L 5.527344 10.339844 L 5.535156 10.316406 L 5.546875 10.292969 L 5.558594 10.265625 L 5.566406 10.242188 L 5.578125 10.214844 L 5.597656 10.171875 L 5.609375 10.144531 L 5.621094 10.121094 L 5.628906 10.097656 L 5.640625 10.070312 L 5.652344 10.046875 L 5.660156 10.023438 L 5.671875 9.996094 L 5.679688 9.972656 L 5.691406 9.945312 L 5.703125 9.921875 L 5.707031 9.898438 L 5.71875 9.871094 L 5.726562 9.847656 L 5.738281 9.824219 L 5.746094 9.796875 L 5.769531 9.75 L 5.78125 9.722656 L 5.789062 9.699219 L 5.808594 9.65625 L 5.820312 9.628906 L 6.304688 9.628906 L 6.316406 9.65625 L 6.328125 9.679688 L 6.335938 9.703125 L 6.34375 9.730469 L 6.367188 9.777344 L 6.378906 9.804688 L 6.386719 9.828125 L 6.398438 9.855469 L 6.40625 9.878906 L 6.417969 9.902344 L 6.429688 9.929688 L 6.441406 9.953125 L 6.449219 9.976562 L 6.457031 10.003906 L 6.46875 10.027344 L 6.480469 10.054688 L 6.492188 10.078125 L 6.5 10.101562 L 6.511719 10.128906 L 6.519531 10.152344 L 6.53125 10.175781 L 6.542969 10.203125 L 6.554688 10.226562 L 6.5625 10.25 L 6.570312 10.277344 L 6.582031 10.300781 L 6.59375 10.328125 L 6.605469 10.347656 L 6.613281 10.375 L 6.632812 10.417969 L 6.644531 10.445312 L 6.664062 10.496094 L 6.675781 10.519531 L 6.683594 10.542969 L 6.695312 10.570312 L 6.71875 10.617188 L 6.726562 10.644531 L 6.738281 10.667969 L 6.746094 10.691406 L 6.757812 10.71875 L 6.777344 10.769531 L 6.789062 10.792969 L 6.796875 10.816406 L 6.808594 10.84375 L 6.832031 10.890625 L 6.839844 10.917969 L 6.851562 10.941406 L 6.859375 10.96875 L 6.871094 10.992188 L 6.890625 11.042969 L 6.902344 11.066406 L 6.910156 11.089844 L 6.921875 11.117188 L 6.945312 11.164062 L 6.953125 11.191406 L 6.964844 11.214844 L 6.972656 11.242188 L 6.996094 11.289062 L 7.003906 11.316406 L 7.027344 11.363281 L 7.035156 11.390625 L 7.058594 11.4375 L 7.066406 11.464844 L 7.078125 11.488281 L 7.089844 11.515625 L 7.097656 11.535156 L 7.109375 11.5625 L 7.128906 11.605469 Z M 4.789062 11.347656 L 4.769531 11.363281 L 4.746094 11.378906 L 4.730469 11.394531 L 4.707031 11.410156 L 4.667969 11.4375 L 4.621094 11.46875 L 4.59375 11.484375 L 4.570312 11.496094 L 4.542969 11.507812 L 4.515625 11.523438 L 4.492188 11.53125 L 4.464844 11.542969 L 4.390625 11.570312 L 4.359375 11.582031 L 4.308594 11.601562 L 4.285156 11.613281 L 4.183594 11.632812 L 4.15625 11.636719 L 4.125 11.640625 L 4.097656 11.648438 L 4.042969 11.65625 L 4.011719 11.660156 L 3.929688 11.660156 L 3.902344 11.65625 L 3.871094 11.652344 L 3.847656 11.648438 L 3.820312 11.640625 L 3.769531 11.632812 L 3.742188 11.628906 L 3.667969 11.613281 L 3.640625 11.605469 L 3.589844 11.589844 L 3.535156 11.566406 L 3.484375 11.546875 L 3.460938 11.535156 L 3.433594 11.523438 L 3.414062 11.515625 L 3.390625 11.496094 L 3.367188 11.484375 L 3.328125 11.453125 L 3.304688 11.4375 L 3.265625 11.410156 L 3.242188 11.394531 L 3.222656 11.375 L 3.203125 11.359375 L 3.183594 11.339844 L 3.160156 11.320312 L 3.144531 11.296875 L 3.128906 11.28125 L 3.117188 11.257812 L 3.097656 11.242188 L 3.082031 11.21875 L 3.058594 11.179688 L 3.027344 11.132812 L 3.019531 11.109375 L 3.007812 11.085938 L 2.996094 11.058594 L 2.984375 11.035156 L 2.976562 11.015625 L 2.964844 10.992188 L 2.960938 10.96875 L 2.953125 10.941406 L 2.945312 10.917969 L 2.933594 10.890625 L 2.929688 10.867188 L 2.929688 10.84375 L 2.921875 10.816406 L 2.921875 10.792969 L 2.917969 10.769531 L 2.917969 10.554688 L 2.921875 10.523438 L 2.929688 10.5 L 2.941406 10.449219 L 2.953125 10.425781 L 2.957031 10.402344 L 2.964844 10.375 L 2.976562 10.347656 L 2.984375 10.328125 L 2.996094 10.300781 L 3.007812 10.277344 L 3.019531 10.25 L 3.035156 10.203125 L 3.054688 10.175781 L 3.070312 10.15625 L 3.078125 10.136719 L 3.140625 10.058594 L 3.15625 10.035156 L 3.171875 10.019531 L 3.191406 9.996094 L 3.207031 9.976562 L 3.230469 9.957031 L 3.25 9.9375 L 3.269531 9.921875 L 3.289062 9.902344 L 3.308594 9.890625 L 3.332031 9.871094 L 3.351562 9.859375 L 3.371094 9.84375 L 3.414062 9.816406 L 3.441406 9.796875 L 3.464844 9.785156 L 3.492188 9.769531 L 3.515625 9.757812 L 3.542969 9.75 L 3.570312 9.734375 L 3.589844 9.722656 L 3.617188 9.714844 L 3.640625 9.703125 L 3.667969 9.699219 L 3.691406 9.691406 L 3.71875 9.683594 L 3.742188 9.671875 L 3.769531 9.667969 L 3.898438 9.644531 L 3.921875 9.640625 L 4.03125 9.640625 L 4.0625 9.644531 L 4.09375 9.652344 L 4.121094 9.652344 L 4.144531 9.65625 L 4.175781 9.660156 L 4.230469 9.667969 L 4.253906 9.671875 L 4.28125 9.679688 L 4.332031 9.691406 L 4.355469 9.699219 L 4.382812 9.703125 L 4.402344 9.714844 L 4.429688 9.722656 L 4.472656 9.742188 L 4.503906 9.753906 L 4.527344 9.769531 L 4.554688 9.777344 L 4.574219 9.792969 L 4.667969 9.855469 L 4.6875 9.867188 L 4.707031 9.882812 L 4.730469 9.898438 L 4.746094 9.917969 L 4.769531 9.933594 L 4.753906 9.953125 L 4.734375 9.972656 L 4.71875 9.992188 L 4.695312 10.011719 L 4.679688 10.03125 L 4.667969 10.054688 L 4.644531 10.070312 L 4.628906 10.09375 L 4.617188 10.109375 L 4.59375 10.132812 L 4.578125 10.152344 L 4.558594 10.171875 L 4.527344 10.210938 L 4.507812 10.230469 L 4.492188 10.25 L 4.46875 10.269531 L 4.457031 10.292969 L 4.433594 10.277344 L 4.414062 10.257812 L 4.394531 10.242188 L 4.371094 10.226562 L 4.332031 10.195312 L 4.308594 10.179688 L 4.285156 10.167969 L 4.265625 10.15625 L 4.242188 10.144531 L 4.222656 10.136719 L 4.195312 10.128906 L 4.171875 10.117188 L 4.070312 10.097656 L 4.035156 10.09375 L 4.007812 10.089844 L 3.949219 10.089844 L 3.847656 10.105469 L 3.820312 10.117188 L 3.796875 10.128906 L 3.777344 10.183594 L 3.75 10.195312 L 3.730469 10.210938 L 3.707031 10.226562 L 3.667969 10.257812 L 3.625 10.285156 L 3.609375 10.304688 L 3.589844 10.328125 L 3.574219 10.34375 L 3.558594 10.367188 L 3.542969 10.382812 L 3.53125 10.410156 L 3.515625 10.429688 L 3.507812 10.453125 L 3.496094 10.480469 L 3.484375 10.503906 L 3.476562 10.53125 L 3.46875 10.554688 L 3.464844 10.578125 L 3.460938 10.609375 L 3.460938 10.792969 L 3.46875 10.84375 L 3.484375 10.890625 L 3.515625 10.882812 L 3.527344 10.90625 L 3.535156 10.929688 L 3.554688 10.957031 L 3.578125 10.996094 L 3.609375 11.035156 L 3.628906 11.054688 L 3.644531 11.078125 L 3.667969 11.089844 L 3.6875 11.105469 L 3.730469 11.132812 L 3.75 11.152344 L 3.777344 11.160156 L 3.800781 11.171875 L 3.878906 11.199219 L 3.902344 11.207031 L 3.984375 11.21875 L 4.03125 11.21875 L 4.09375 11.210938 L 4.121094 11.207031 L 4.144531 11.199219 L 4.222656 11.183594 L 4.25 11.175781 L 4.269531 11.164062 L 4.296875 11.15625 L 4.316406 11.144531 L 4.335938 11.128906 L 4.335938 10.882812 L 3.957031 10.882812 L 3.957031 10.515625 L 4.804688 10.515625 L 4.804688 11.339844 Z M 3.949219 5.574219 L 5.082031 5.574219 L 5.082031 4.730469 L 3.949219 4.730469 L 3.949219 3.007812 L 5.128906 3.007812 L 5.128906 2.160156 L 2.984375 2.160156 L 2.984375 8.257812 L 5.144531 8.257812 L 5.144531 7.414062 L 3.949219 7.414062 L 3.949219 5.574219 M 12.058594 5.757812 L 12.058594 7.132812 C 12.058594 7.378906 11.941406 7.492188 11.699219 7.492188 L 11.519531 7.492188 C 11.265625 7.492188 11.148438 7.378906 11.148438 7.132812 L 11.148438 3.285156 C 11.148438 3.042969 11.265625 2.925781 11.519531 2.925781 L 11.679688 2.925781 C 11.921875 2.925781 12.039062 3.042969 12.039062 3.285156 L 12.039062 4.476562 L 12.980469 4.476562 L 12.980469 3.230469 C 12.980469 2.472656 12.605469 2.105469 11.824219 2.105469 L 11.355469 2.105469 C 10.570312 2.105469 10.183594 2.480469 10.183594 3.242188 L 10.183594 7.175781 C 10.183594 7.933594 10.570312 8.308594 11.355469 8.308594 L 11.828125 8.308594 C 12.609375 8.308594 12.996094 7.933594 12.996094 7.175781 L 12.996094 5.753906 L 12.058594 5.753906 M 8.722656 2.160156 L 9.683594 2.160156 L 9.683594 8.257812 L 8.722656 8.257812 Z M 7.324219 4.871094 C 7.324219 5.113281 7.207031 5.226562 6.964844 5.226562 L 6.566406 5.226562 L 6.566406 2.980469 L 6.964844 2.980469 C 7.207031 2.980469 7.324219 3.09375 7.324219 3.339844 Z M 7.117188 2.160156 L 5.609375 2.160156 L 5.609375 8.257812 L 6.570312 8.257812 L 6.570312 6.046875 L 7.117188 6.046875 C 7.902344 6.046875 8.289062 5.671875 8.289062 4.914062 L 8.289062 3.292969 C 8.289062 2.535156 7.902344 2.160156 7.117188 2.160156 Z M 5.253906 13.769531 L 10.761719 13.769531 L 7.953125 14.664062 L 5.253906 13.769531 "/>
</g>
</svg>
