<?xml version="1.0" encoding="UTF-8"?>
<svg xmlns="http://www.w3.org/2000/svg" xmlns:xlink="http://www.w3.org/1999/xlink" width="16px" height="16px" viewBox="0 0 16 16" version="1.1">
<g id="surface1">
<path style=" stroke:none;fill-rule:nonzero;fill:rgb(0%,0%,0%);fill-opacity:1;" d="M 7.988281 0 C 3.777344 0 0.328125 3.238281 0 7.351562 L 4.292969 9.121094 C 4.667969 8.867188 5.113281 8.730469 5.574219 8.730469 C 5.613281 8.730469 5.65625 8.730469 5.699219 8.734375 L 7.609375 5.972656 L 7.609375 5.933594 C 7.609375 4.269531 8.964844 2.917969 10.628906 2.917969 C 12.296875 2.917969 13.652344 4.269531 13.652344 5.933594 C 13.652344 7.59375 12.296875 8.949219 10.628906 8.949219 C 10.605469 8.949219 10.585938 8.949219 10.5625 8.949219 L 7.839844 10.886719 C 7.839844 10.921875 7.839844 10.957031 7.839844 10.992188 C 7.839844 12.238281 6.824219 13.253906 5.574219 13.253906 C 4.472656 13.253906 3.554688 12.472656 3.347656 11.4375 L 0.277344 10.171875 C 1.226562 13.527344 4.316406 15.988281 7.988281 15.988281 C 12.410156 15.988281 16 12.40625 16 7.992188 C 16 3.578125 12.410156 0 7.988281 0 Z M 5.019531 12.128906 L 4.035156 11.722656 C 4.210938 12.085938 4.511719 12.386719 4.914062 12.554688 C 5.78125 12.914062 6.777344 12.503906 7.140625 11.640625 C 7.316406 11.222656 7.316406 10.757812 7.144531 10.339844 C 6.972656 9.921875 6.644531 9.59375 6.222656 9.417969 C 5.808594 9.246094 5.363281 9.253906 4.96875 9.402344 L 5.988281 9.820312 C 6.625 10.085938 6.925781 10.816406 6.660156 11.457031 C 6.394531 12.09375 5.660156 12.394531 5.019531 12.128906 Z M 12.644531 5.933594 C 12.644531 4.824219 11.738281 3.925781 10.628906 3.925781 C 9.519531 3.925781 8.617188 4.824219 8.617188 5.933594 C 8.617188 7.042969 9.519531 7.941406 10.628906 7.941406 C 11.738281 7.941406 12.644531 7.042969 12.644531 5.933594 Z M 9.121094 5.929688 C 9.121094 5.097656 9.800781 4.421875 10.632812 4.421875 C 11.46875 4.421875 12.144531 5.097656 12.144531 5.929688 C 12.144531 6.761719 11.46875 7.4375 10.632812 7.4375 C 9.800781 7.4375 9.121094 6.761719 9.121094 5.929688 Z M 9.121094 5.929688 "/>
</g>
</svg>
