<?xml version="1.0" encoding="UTF-8"?>
<svg xmlns="http://www.w3.org/2000/svg" xmlns:xlink="http://www.w3.org/1999/xlink" width="16px" height="16px" viewBox="0 0 16 16" version="1.1">
<g id="surface1">
<path style=" stroke:none;fill-rule:nonzero;fill:rgb(0%,0%,0%);fill-opacity:1;" d="M 13.089844 5.359375 C 12.753906 2.574219 10.605469 1.386719 9.621094 0.988281 C 9.363281 0.882812 9.089844 0.800781 8.816406 0.753906 C 4.960938 0.117188 3.171875 3.191406 2.945312 3.621094 C 2.933594 3.644531 2.941406 3.679688 2.964844 3.691406 L 3.355469 3.925781 C 3.378906 3.9375 3.386719 3.96875 3.378906 3.996094 C 1.894531 7.246094 3.902344 9.496094 4.707031 10.214844 C 4.867188 10.363281 5.042969 10.496094 5.234375 10.609375 C 8.671875 12.675781 11.394531 10.140625 11.394531 10.140625 C 13.742188 8.035156 13.089844 5.359375 13.089844 5.359375 Z M 4.460938 5.917969 C 4.035156 6.753906 4.132812 7.511719 4.101562 7.710938 C 4.070312 7.894531 3.953125 7.730469 3.9375 7.710938 C 3.9375 7.710938 3.9375 7.707031 3.933594 7.707031 C 3.695312 7.296875 3.75 6.351562 3.753906 6.289062 C 3.753906 6.285156 3.753906 6.285156 3.753906 6.285156 C 3.839844 5.792969 4.113281 5.042969 4.347656 4.808594 C 4.589844 4.566406 4.753906 4.210938 5.652344 3.777344 C 6.558594 3.339844 7.46875 3.402344 8.328125 3.777344 C 9.1875 4.144531 9.839844 5.089844 9.902344 5.480469 C 9.964844 5.832031 9.742188 5.589844 9.699219 5.535156 C 9.691406 5.53125 9.691406 5.523438 9.6875 5.519531 C 9.675781 5.488281 9.59375 5.347656 8.960938 4.851562 C 8.222656 4.273438 7.234375 4.113281 6.472656 4.308594 C 5.707031 4.503906 4.886719 5.082031 4.460938 5.917969 Z M 8.992188 7.933594 C 8.035156 8.957031 7.105469 8.207031 7.070312 8.175781 C 7.066406 8.175781 7.066406 8.175781 7.066406 8.175781 C 6.128906 7.496094 6.636719 6.449219 6.675781 6.371094 C 6.675781 6.363281 6.679688 6.363281 6.679688 6.359375 C 7.308594 5.535156 7.957031 5.636719 8.292969 5.773438 C 8.433594 5.832031 8.558594 5.917969 8.660156 6.03125 C 9.277344 6.707031 8.847656 7.398438 8.714844 7.578125 C 8.695312 7.605469 8.699219 7.640625 8.726562 7.660156 L 8.984375 7.847656 C 9.011719 7.867188 9.015625 7.90625 8.992188 7.933594 Z M 12.082031 7.597656 C 12.082031 7.597656 11.035156 10.792969 7.644531 10.449219 C 7.644531 10.449219 5.410156 10.121094 5.039062 7.753906 C 5.039062 7.753906 5.035156 7.753906 5.035156 7.75 C 5.023438 7.695312 4.746094 6.511719 6.132812 5.449219 C 6.136719 5.449219 6.136719 5.449219 6.136719 5.449219 C 6.152344 5.441406 6.21875 5.40625 6.1875 5.53125 C 6.15625 5.667969 5.746094 5.789062 5.585938 6.988281 C 5.421875 8.191406 6.433594 8.902344 6.691406 9.082031 C 6.953125 9.261719 8.59375 9.914062 9.824219 8.714844 C 11.023438 7.546875 10.851562 6.042969 10.84375 5.972656 C 10.84375 5.96875 10.84375 5.96875 10.84375 5.964844 C 10.839844 5.898438 10.785156 4.53125 9.410156 3.410156 C 8.023438 2.277344 6.3125 2.613281 6.257812 2.625 C 6.253906 2.625 6.253906 2.625 6.253906 2.625 C 6.21875 2.628906 5.519531 2.738281 4.457031 3.433594 C 4.449219 3.441406 4.433594 3.453125 4.425781 3.460938 C 4.410156 3.492188 4.34375 3.558594 4.230469 3.511719 C 4.117188 3.464844 4.140625 3.445312 4.289062 3.292969 C 4.425781 3.15625 4.503906 3.070312 4.511719 3.058594 C 4.511719 3.054688 4.515625 3.054688 4.515625 3.054688 C 4.570312 2.984375 6.460938 0.570312 9.808594 2.097656 C 9.890625 2.136719 9.964844 2.179688 10.042969 2.230469 C 10.667969 2.621094 13.125 4.402344 12.082031 7.597656 Z M 0 12.300781 L 0.621094 12.300781 C 0.652344 12.300781 0.675781 12.324219 0.675781 12.355469 L 0.675781 14.242188 C 0.675781 14.246094 0.675781 14.25 0.675781 14.253906 C 0.691406 14.3125 0.804688 14.710938 1.222656 14.710938 C 1.667969 14.710938 1.808594 14.320312 1.808594 14.253906 L 1.808594 12.355469 C 1.808594 12.324219 1.835938 12.296875 1.867188 12.296875 L 2.414062 12.296875 C 2.445312 12.296875 2.46875 12.324219 2.46875 12.355469 L 2.46875 14.214844 C 2.46875 14.238281 2.46875 14.269531 2.464844 14.292969 C 2.441406 14.507812 2.265625 15.320312 1.238281 15.320312 C 0.277344 15.320312 0.0625 14.636719 0.015625 14.378906 C 0.00390625 14.328125 0.00390625 14.277344 0.00390625 14.222656 L 0.00390625 12.300781 Z M 4.34375 13.730469 C 4.34375 13.730469 4.707031 13.574219 4.707031 13.03125 C 4.707031 12.488281 4.078125 12.296875 3.785156 12.296875 L 2.828125 12.296875 C 2.792969 12.296875 2.769531 12.324219 2.769531 12.355469 C 2.765625 12.769531 2.738281 15.328125 2.769531 15.328125 L 3.9375 15.328125 C 3.988281 15.328125 4.042969 15.320312 4.089844 15.308594 C 4.300781 15.253906 4.816406 15.054688 4.816406 14.480469 C 4.816406 13.757812 4.34375 13.730469 4.34375 13.730469 Z M 3.410156 12.921875 C 3.410156 12.890625 3.433594 12.867188 3.464844 12.863281 C 3.535156 12.863281 3.675781 12.859375 3.808594 12.859375 C 3.933594 12.859375 4.082031 12.984375 4.082031 13.167969 C 4.082031 13.285156 4.019531 13.359375 3.957031 13.40625 C 3.902344 13.445312 3.835938 13.464844 3.769531 13.464844 L 3.464844 13.464844 C 3.433594 13.464844 3.410156 13.441406 3.410156 13.410156 Z M 3.832031 14.761719 L 3.464844 14.761719 C 3.433594 14.761719 3.40625 14.738281 3.40625 14.707031 L 3.40625 14.105469 C 3.40625 14.074219 3.433594 14.050781 3.460938 14.050781 C 3.546875 14.046875 3.714844 14.042969 3.878906 14.042969 C 4.027344 14.042969 4.210938 14.1875 4.210938 14.410156 C 4.210938 14.542969 4.136719 14.636719 4.058594 14.691406 C 3.996094 14.738281 3.914062 14.761719 3.832031 14.761719 Z M 5.113281 12.300781 L 5.675781 12.300781 C 5.707031 12.300781 5.730469 12.324219 5.730469 12.355469 L 5.730469 15.269531 C 5.730469 15.300781 5.707031 15.324219 5.675781 15.324219 L 5.113281 15.324219 C 5.082031 15.324219 5.058594 15.300781 5.058594 15.269531 L 5.058594 12.355469 C 5.058594 12.324219 5.082031 12.300781 5.113281 12.300781 Z M 5.914062 14.710938 L 6.378906 14.34375 C 6.40625 14.324219 6.445312 14.332031 6.464844 14.359375 C 6.535156 14.480469 6.726562 14.746094 7.027344 14.746094 C 7.417969 14.746094 7.386719 14.355469 7.386719 14.355469 C 7.386719 14.355469 7.398438 14.160156 6.886719 14.003906 C 6.378906 13.847656 6.050781 13.523438 6.074219 13.144531 C 6.097656 12.773438 6.359375 12.371094 6.742188 12.300781 C 7.113281 12.230469 7.589844 12.238281 7.953125 12.746094 C 7.972656 12.769531 7.964844 12.804688 7.941406 12.824219 L 7.535156 13.121094 C 7.503906 13.140625 7.464844 13.132812 7.449219 13.105469 C 7.394531 13.003906 7.238281 12.804688 6.949219 12.832031 C 6.558594 12.871094 6.632812 13.195312 6.734375 13.296875 C 6.828125 13.390625 7.3125 13.5625 7.421875 13.605469 C 7.4375 13.609375 7.488281 13.628906 7.507812 13.636719 C 7.507812 13.636719 7.511719 13.636719 7.511719 13.636719 C 7.621094 13.691406 8.007812 13.917969 8.027344 14.226562 C 8.054688 14.601562 8.066406 14.945312 7.511719 15.222656 C 6.957031 15.496094 6.238281 15.234375 5.914062 14.710938 Z M 13.332031 14.113281 L 12.140625 14.113281 C 12.105469 14.113281 12.082031 14.136719 12.082031 14.167969 L 12.082031 15.269531 C 12.082031 15.300781 12.058594 15.324219 12.027344 15.324219 L 11.515625 15.324219 C 11.484375 15.324219 11.457031 15.300781 11.457031 15.269531 L 11.457031 12.367188 C 11.457031 12.335938 11.484375 12.308594 11.515625 12.308594 L 13.40625 12.308594 C 13.4375 12.308594 13.464844 12.335938 13.464844 12.367188 L 13.464844 12.898438 C 13.464844 12.929688 13.4375 12.953125 13.40625 12.953125 L 12.144531 12.953125 C 12.113281 12.953125 12.089844 12.980469 12.089844 13.011719 L 12.089844 13.535156 C 12.089844 13.570312 12.113281 13.59375 12.144531 13.59375 L 13.332031 13.59375 M 14.511719 15.269531 L 14.511719 13.023438 C 14.511719 12.992188 14.488281 12.964844 14.457031 12.964844 L 13.75 12.964844 C 13.71875 12.964844 13.691406 12.941406 13.691406 12.910156 L 13.691406 12.367188 C 13.691406 12.335938 13.71875 12.308594 13.75 12.308594 L 15.945312 12.308594 C 15.976562 12.308594 16 12.335938 16 12.367188 L 16 12.910156 C 16 12.941406 15.976562 12.964844 15.945312 12.964844 L 15.261719 12.964844 C 15.230469 12.964844 15.203125 12.992188 15.203125 13.023438 L 15.203125 15.269531 C 15.203125 15.300781 15.175781 15.324219 15.144531 15.324219 L 14.570312 15.324219 C 14.539062 15.324219 14.511719 15.300781 14.511719 15.269531 Z M 9.761719 12.238281 C 9.347656 12.238281 8.972656 12.402344 8.691406 12.660156 C 8.667969 12.683594 8.667969 12.722656 8.691406 12.746094 L 8.699219 12.75 C 8.71875 12.769531 8.71875 12.808594 8.699219 12.832031 C 8.421875 13.105469 8.269531 13.507812 8.269531 13.925781 C 8.269531 14.066406 8.292969 14.203125 8.328125 14.332031 C 8.339844 14.378906 8.359375 14.425781 8.382812 14.46875 C 8.636719 14.964844 9.160156 15.304688 9.761719 15.304688 C 10.589844 15.304688 11.226562 14.660156 11.269531 13.851562 C 11.269531 13.824219 11.273438 13.800781 11.273438 13.773438 C 11.269531 12.925781 10.621094 12.238281 9.761719 12.238281 Z M 9.800781 14.722656 C 9.691406 14.734375 9.589844 14.730469 9.488281 14.707031 C 9.195312 14.640625 8.972656 14.425781 8.902344 14.128906 C 8.886719 14.0625 8.875 13.984375 8.875 13.910156 C 8.875 13.660156 8.972656 13.433594 9.132812 13.265625 C 9.152344 13.242188 9.152344 13.210938 9.132812 13.1875 L 9.121094 13.175781 C 9.097656 13.152344 9.101562 13.113281 9.125 13.09375 C 9.285156 12.957031 9.464844 12.871094 9.695312 12.871094 C 9.988281 12.871094 10.25 12.972656 10.421875 13.183594 C 10.578125 13.371094 10.660156 13.621094 10.632812 13.886719 C 10.589844 14.320312 10.238281 14.675781 9.800781 14.722656 Z M 13.332031 14.078125 L 13.332031 13.632812 "/>
</g>
</svg>
